<svg width="70" height="61" viewBox="0 0 70 61" fill="none" xmlns="http://www.w3.org/2000/svg">
<path d="M69.0125 30.519C68.9364 47.0891 34.665 60.5201 34.665 60.5201C34.665 60.5201 0.51711 47.0891 0.593284 30.519C0.669458 13.9489 34.9408 0.517944 34.9408 0.517944C34.9408 0.517944 69.0887 13.9489 69.0125 30.519Z" fill="#A72116"/>
<path d="M61.6024 30.519C61.589 33.4206 60.0722 36.341 57.5222 39.1802C54.9854 42.0047 51.5638 44.5929 48.0739 46.8019C44.5945 49.0041 41.1073 50.792 38.4841 52.031C37.1744 52.6496 36.0844 53.1293 35.3242 53.4534C35.0794 53.5578 34.8688 53.646 34.6963 53.7174C34.5245 53.646 34.3148 53.5578 34.0708 53.4534C33.3137 53.1293 32.2281 52.6496 30.9241 52.031C28.3122 50.792 24.8415 49.0041 21.3823 46.8019C17.9127 44.5929 14.5149 42.0047 12.0041 39.1802C9.48026 36.341 7.99025 33.4206 8.00359 30.519C8.01692 27.6175 9.53379 24.697 12.0837 21.8578C14.6205 19.0333 18.0421 16.4451 21.532 14.2362C25.0114 12.0339 28.4986 10.246 31.1218 9.00708C32.4316 8.38847 33.5215 7.90878 34.2817 7.58467C34.5266 7.48027 34.7371 7.39206 34.9096 7.3206C35.0815 7.39206 35.2912 7.48027 35.5351 7.58467C36.2923 7.90878 37.3778 8.38847 38.6819 9.00708C41.2937 10.246 44.7645 12.0339 48.2236 14.2362C51.6932 16.4451 55.091 19.0333 57.6019 21.8578C60.1257 24.697 61.6157 27.6175 61.6024 30.519Z" fill="#A72116" stroke="#0D4362" stroke-width="3" stroke-miterlimit="10"/>
</svg>
